# xmcd CD database file
#
# Track frame offsets:
#	150
#	22183
#	48300
#	75614
#	93765
#	108751
#	134255
#	167677
#	199488
#	217792
#	249893
#	310749
#
# Disc length: 4386 seconds
#
# Revision: 0
# Processed by: cddbd v1.5.2PL0 Copyright (c) Steve Scherf et al.
# Submitted via: CDex 2.00
#
DISCID=9211200c
DTITLE=Gordon Beck - Jubilation CD1
DYEAR=2018
DGENRE=Jazz
TTITLE0=Speak Low
TTITLE1=Time After Time
TTITLE2=Virgo
TTITLE3=Airegin
TTITLE4=Miss T. Fying
TTITLE5=Sincerity
TTITLE6=Suite Number One
TTITLE7=And Still She Is With Me
TTITLE8=Motifs
TTITLE9=Reaching for the Stars and Further Still
TTITLE10=Prelude/Tying Up The Loose Ends
TTITLE11=Whoops!
EXTD=YEAR: 2018
EXTT0=
EXTT1=
EXTT2=
EXTT3=
EXTT4=
EXTT5=
EXTT6=
EXTT7=
EXTT8=
EXTT9=
EXTT10=
EXTT11=
PLAYORDER=
